<?xml version="1.0" encoding="UTF-8"?>
<svg version="1.1" xmlns="http://www.w3.org/2000/svg" width="2000" height="2000">
<path d="M0 0 C1.09941264 0.19777699 2.19882528 0.39555399 3.33155346 0.59932423 C6.97162346 1.25579049 10.60992681 1.92155231 14.24829102 2.58740234 C16.86630629 3.06159115 19.4844098 3.53526615 22.10263062 4.00831604 C28.444518 5.1553661 34.78511846 6.30938198 41.12531471 7.46573871 C48.55291713 8.82009362 55.98189141 10.16685147 63.41090477 11.51344144 C81.95910727 14.8759512 100.50444027 18.25416037 119.04924965 21.63532543 C122.74655087 22.30938149 126.44389519 22.98320101 130.14123535 23.65704346 C154.7404102 28.14042835 179.33931273 32.62529573 203.93457031 37.13012695 C209.02086639 38.06146208 214.10720981 38.99253809 219.19360352 39.92333984 C220.41769865 40.14735033 221.64179379 40.37136082 222.90298271 40.6021595 C237.97001735 43.357985 253.04192172 46.08350887 268.12425804 48.75435448 C270.78551318 49.22582531 273.44654387 49.69854159 276.10749817 50.17170715 C277.78683056 50.47020773 279.46616701 50.76868544 281.14550781 51.06713867 C281.94807542 51.2097881 282.75064302 51.35243753 283.57753086 51.49940968 C288.10397801 52.30279454 292.6319765 53.09648486 297.16159916 53.88175774 C299.19852951 54.23644029 301.234557 54.595849 303.27027893 54.95739746 C305.65195367 55.38012705 308.03500353 55.79523455 310.41978455 56.20007324 C321.88540449 58.25963573 332.68787773 61.57452248 339.62719727 71.42333984 C344.31112548 78.48131387 344.6094562 85.3957708 344.59317017 93.60887146 C344.59896257 94.66024184 344.60475497 95.71161222 344.6107229 96.7948423 C344.62770178 100.31093199 344.63059763 103.82689024 344.63354492 107.34301758 C344.64284454 109.86618877 344.65301326 112.38935689 344.66398621 114.91252136 C344.68564098 120.34121754 344.70125846 125.76987746 344.7113533 131.19860649 C344.72595909 139.04755609 344.75150121 146.89644036 344.77968459 154.74535156 C344.8251181 167.48068906 344.86174711 180.21603598 344.89282227 192.95141602 C344.92302191 205.32024794 344.95737868 217.68905684 344.99731445 230.05786133 C344.999776 230.82069313 345.00223755 231.58352494 345.00477369 232.36947285 C345.01714857 236.19650088 345.02960505 240.02352863 345.0421021 243.85055625 C345.14561836 275.58311968 345.23469161 307.31570816 345.31469727 339.04833984 C346.11922616 339.33328843 346.92375505 339.61823702 347.75266361 339.91182041 C350.77553018 340.98359787 353.79771364 342.05727507 356.81946659 343.13218784 C358.12026376 343.59448865 359.4213202 344.05606066 360.72265339 344.51685047 C370.08007096 347.830966 379.23935626 351.31470329 388.25219727 355.48583984 C390.04645142 356.30459595 390.04645142 356.30459595 391.87695312 357.13989258 C432.58655825 375.83188554 469.83378381 400.75281623 502.94360352 430.89599609 C504.48133481 432.29186091 506.03025957 433.67553082 507.59204102 435.04443359 C513.0855102 439.87978334 518.31917075 444.94745954 523.50219727 450.11083984 C524.16751465 450.77156494 524.83283203 451.43229004 525.51831055 452.11303711 C529.98654909 456.59515906 534.19125823 461.24906872 538.31469727 466.04833984 C539.26434474 467.13113768 540.21481814 468.21321192 541.16625977 469.29443359 C594.01482574 529.87325717 629.40597031 605.4555777 642.62719727 684.67333984 C642.81226334 685.77899292 642.81226334 685.77899292 643.00106812 686.90698242 C644.35805076 695.10505143 645.52851075 703.31683244 646.48266602 711.57177734 C646.56776932 712.28774078 646.65287262 713.00370422 646.74055481 713.74136353 C647.1480402 717.44626038 647.35500232 721.08239713 647.33613586 724.81118774 C647.33304067 725.60855158 647.32994547 726.40591541 647.32675648 727.22744179 C647.32277694 727.82833815 647.3187974 728.4292345 647.31469727 729.04833984 C646.2684306 729.04858405 645.22216394 729.04882825 644.14419223 729.04907985 C608.32098146 729.05747157 572.49777093 729.06675118 536.67456055 729.07666016 C535.95288903 729.0768597 535.23121752 729.07705924 534.48767717 729.07726483 C457.16616858 729.09866869 379.84466466 729.12591264 302.52316284 729.16497803 C300.80581674 729.1658442 299.08847063 729.16671037 297.37112453 729.16757654 C261.32427921 729.18577506 225.27743436 729.20479551 189.23058998 729.22476554 C171.12330437 729.23479614 153.01601868 729.24466879 134.9087329 729.25439209 C132.1773021 729.25585974 129.44587131 729.2573319 126.71444052 729.25880424 C84.64985846 729.28143892 42.5852782 729.30068419 0.52069092 729.31011963 C-0.38386604 729.31032259 -1.288423 729.31052556 -2.22039077 729.31073467 C-16.80470365 729.31398653 -31.38901659 729.31695416 -45.97332954 729.31988407 C-87.97614086 729.32832654 -129.9789469 729.33886765 -171.9817524 729.36332321 C-173.27714725 729.3640759 -173.27714725 729.3640759 -174.59871169 729.3648438 C-193.55590337 729.37589664 -212.51309421 729.38803059 -231.47028454 729.40118843 C-239.09780563 729.4064635 -246.72532682 729.41158292 -254.35284805 729.41664886 C-255.18765148 729.41720707 -256.0224549 729.41776527 -256.8825554 729.41834039 C-283.78828994 729.43625384 -310.69400867 729.44149205 -337.59974859 729.44009358 C-364.69888553 729.43874301 -391.79798665 729.44979971 -418.89710972 729.47814219 C-422.64063424 729.48205436 -426.38415889 729.48582401 -430.12768364 729.48950768 C-430.86153094 729.49023494 -431.59537823 729.49096221 -432.35146332 729.49171152 C-443.97868953 729.50286504 -455.60587288 729.50057615 -467.23310014 729.49269799 C-478.66216468 729.4852297 -490.09112801 729.49228368 -501.52018194 729.51383214 C-507.63584529 729.52494586 -513.75133318 729.52965075 -519.86699723 729.51685229 C-525.42800401 729.50533749 -530.98867336 729.51211849 -536.54964767 729.53364054 C-538.55145291 729.53815564 -540.55328721 729.53594284 -542.55507413 729.52626061 C-553.81907453 729.47581305 -562.52429173 729.81683334 -572.43530273 735.67333984 C-578.40049962 741.96993655 -582.61290694 749.68785261 -582.71264648 758.45068359 C-582.24830971 766.17772381 -579.6795329 773.78121554 -574.43139648 779.63427734 C-565.95151546 786.50165302 -556.81775331 788.20412933 -546.22644055 788.17895037 C-545.38337596 788.18092288 -544.54031138 788.1828954 -543.67169938 788.18492768 C-540.83422433 788.19034438 -537.99679804 788.18864416 -535.15931892 788.18700504 C-533.10069554 788.18945204 -531.04207264 788.19233578 -528.98345041 788.19561782 C-523.29557749 788.20340897 -517.60771699 788.20496064 -511.91983939 788.20554524 C-505.74365741 788.20727038 -499.56748204 788.21475354 -493.3913039 788.22152179 C-482.55668582 788.23259475 -471.7220715 788.23998928 -460.88744926 788.24492073 C-449.2602037 788.25023219 -437.63296253 788.25771105 -426.00572014 788.26784897 C-425.27178916 788.2684876 -424.53785817 788.26912623 -423.78168686 788.26978422 C-420.03948054 788.27305054 -416.29727426 788.27635226 -412.555068 788.27966648 C-385.4567901 788.30359318 -358.35851051 788.3227022 -331.2602272 788.33926582 C-304.42051113 788.3556855 -277.58079776 788.37416118 -250.74108505 788.39539909 C-249.49122472 788.39638669 -249.49122472 788.39638669 -248.21611469 788.39739423 C-240.60585696 788.40340866 -232.99559925 788.40944847 -225.38534156 788.41551873 C-206.46627506 788.43060906 -187.54720832 788.44538107 -168.6281414 788.4599371 C-167.3357784 788.4609318 -167.3357784 788.4609318 -166.01730706 788.4619466 C-124.09674486 788.49418423 -82.17618027 788.52275457 -40.25561523 788.55102539 C-25.70648191 788.56083922 -11.1573486 788.57066926 3.39178467 788.58056641 C4.29411147 788.5811802 5.19643827 788.581794 6.12610831 788.5824264 C48.06544884 788.61097738 90.00478733 788.6421319 131.94412549 788.67395892 C134.66653628 788.67602486 137.38894707 788.67808968 140.11135786 788.68015427 C158.15277028 788.6938381 176.19418266 788.70756682 194.23559503 788.72132561 C230.13416563 788.74870227 266.03273643 788.77581513 301.93130738 788.80274679 C303.64092819 788.80402938 305.350549 788.80531215 307.06016981 788.8065951 C384.03286862 788.8643564 461.00556951 788.91904874 537.97827148 788.97241211 C538.69908223 788.97291185 539.41989298 788.97341159 540.16254648 788.97392648 C576.21326328 788.9989182 612.2639802 789.02373484 648.31469727 789.04833984 C648.38336495 832.33651592 648.43622686 875.62468624 648.46789325 918.91290605 C648.47164537 924.0235618 648.47552834 929.13421745 648.47949219 934.24487305 C648.48027912 935.26231189 648.48106605 936.27975073 648.48187683 937.32802106 C648.49493048 953.80190032 648.51858411 970.27574818 648.54615565 986.74960881 C648.57421096 1003.6535058 648.59087379 1020.55738635 648.59696275 1037.46130568 C648.60107892 1047.89178815 648.61407928 1058.32218184 648.63844667 1068.75263698 C648.65430538 1075.90534327 648.65909731 1083.05800366 648.6552014 1090.21072625 C648.65328007 1094.33737011 648.65622397 1098.46385882 648.67231369 1102.59047508 C648.68694786 1106.37144234 648.68762695 1110.15215061 648.67739395 1113.93312997 C648.67553282 1115.94262775 648.68843997 1117.95212264 648.70194119 1119.96157593 C648.64508308 1131.43912685 646.71001362 1138.4956951 638.73266602 1146.87646484 C633.25578888 1151.79592153 627.15864478 1154.16397761 619.82017517 1154.19551086 C618.67776367 1154.20266617 617.53535217 1154.20982147 616.35832214 1154.2171936 C615.10376724 1154.21988251 613.84921234 1154.22257141 612.55664062 1154.2253418 C611.22268497 1154.23160815 609.88873106 1154.2382551 608.55477905 1154.24525452 C604.17137871 1154.26628558 599.78797808 1154.27665937 595.40454102 1154.28662109 C593.8931991 1154.29066969 592.38185737 1154.29478665 590.87051582 1154.29897118 C583.76595678 1154.31802463 576.66140812 1154.33225257 569.55682844 1154.34058315 C561.37041284 1154.35034172 553.18426863 1154.37662425 544.99794859 1154.41708404 C538.6623255 1154.4473159 532.32677985 1154.46205889 525.99108607 1154.46536416 C522.21131601 1154.46770757 518.4318358 1154.47657409 514.65214348 1154.50182533 C511.09058595 1154.52523389 507.52950643 1154.52928867 503.96789169 1154.51906395 C502.05181003 1154.5183383 500.13575196 1154.53734166 498.21977234 1154.55712891 C489.73425961 1154.50642819 482.71661112 1153.21346219 475.72875977 1148.18896484 C469.19590983 1141.28525444 465.38914864 1134.65040916 464.92016602 1125.03662109 C462.93586484 1088.36818724 455.71234262 1054.61598658 438.31469727 1022.04833984 C437.99919922 1021.45069824 437.68370117 1020.85305664 437.35864258 1020.23730469 C411.86389649 972.32567564 365.80422817 937.00168956 314.3828125 921.06396484 C301.93771586 917.35784569 289.20045275 914.65905928 276.31469727 913.04833984 C275.43813477 912.93619141 274.56157227 912.82404297 273.65844727 912.70849609 C219.53369829 907.03161869 163.91129017 923.58205693 121.48657227 957.47021484 C120.42819461 958.32825202 119.37092728 959.18766033 118.31469727 960.04833984 C117.75717773 960.49757813 117.1996582 960.94681641 116.62524414 961.40966797 C73.95733038 995.99617303 47.8275423 1047.9523947 41.88671875 1102.24609375 C41.40980591 1107.11845468 41.18883438 1111.97566609 41.02978516 1116.86767578 C40.6378819 1128.25729787 39.50950927 1137.71019526 31.31860352 1146.32568359 C25.63920287 1151.20797538 19.47602974 1154.1686701 11.97313499 1154.18256092 C10.30047083 1154.18924769 10.30047083 1154.18924769 8.59401548 1154.19606954 C7.36378963 1154.19588518 6.13356377 1154.19570081 4.86605835 1154.19551086 C2.91163344 1154.2010259 2.91163344 1154.2010259 0.91772521 1154.20665234 C-2.70662638 1154.21667704 -6.3309614 1154.2203899 -9.95532489 1154.22304165 C-13.86141842 1154.22694336 -17.76749883 1154.23652184 -21.67358398 1154.24525452 C-31.1110915 1154.2650235 -40.5486001 1154.27508603 -49.98612314 1154.28398231 C-54.42999279 1154.2883648 -58.87386125 1154.29373174 -63.31772995 1154.29897118 C-78.08976558 1154.31598446 -92.86180046 1154.33047848 -107.63384438 1154.33771992 C-111.4678917 1154.33962983 -115.30193902 1154.34155016 -119.13598633 1154.34350586 C-120.08892576 1154.3439896 -121.04186519 1154.34447334 -122.02368157 1154.34497174 C-137.45951305 1154.35327143 -152.89526702 1154.37860686 -168.33106466 1154.41108654 C-184.17736855 1154.44415821 -200.02363305 1154.46216881 -215.86997163 1154.46536416 C-224.76760753 1154.46752924 -233.66513043 1154.47627748 -242.5627327 1154.50182533 C-250.14074713 1154.52353387 -257.71862112 1154.53158204 -265.29666312 1154.52185855 C-269.16211738 1154.51731417 -273.02728187 1154.51920781 -276.89269638 1154.53862 C-281.08692202 1154.55950121 -285.28050519 1154.54926535 -289.47476196 1154.53608704 C-291.30002425 1154.55254091 -291.30002425 1154.55254091 -293.16216052 1154.56932718 C-303.26495274 1154.49266078 -310.45735802 1151.93422577 -317.89233398 1145.04833984 C-323.5428084 1138.74541413 -325.67304046 1132.23779972 -326.07983398 1123.93896484 C-329.02506487 1069.6014328 -345.38455412 1020.87559329 -382.60717773 980.37255859 C-384.03454425 978.77616183 -385.40913953 977.1314799 -386.73608398 975.45068359 C-389.0209374 972.63468189 -391.50688304 970.44597243 -394.26342773 968.10693359 C-395.98312124 966.64519412 -397.67883444 965.15503282 -399.35717773 963.64599609 C-439.99544359 927.47637986 -495.51090028 908.92915279 -549.68530273 912.04833984 C-599.18978685 915.70456365 -643.46687692 934.34595733 -680.68530273 967.04833984 C-681.8396582 968.01900391 -681.8396582 968.01900391 -683.01733398 969.00927734 C-686.91078093 972.2997239 -690.36194216 975.74717812 -693.65014648 979.64208984 C-695.22284661 981.50155871 -696.81737244 983.32624846 -698.43920898 985.14208984 C-730.92326701 1021.78280077 -748.28509526 1069.96775183 -749.96801758 1118.62207031 C-750.41982929 1130.8066434 -752.50289126 1139.40607022 -761.68530273 1148.04833984 C-767.98776627 1152.93596463 -773.75226707 1154.3487975 -781.62402344 1154.33886719 C-782.78406639 1154.34894302 -782.78406639 1154.34894302 -783.96754456 1154.35922241 C-786.51545725 1154.37815896 -789.06310533 1154.38212599 -791.61108398 1154.38427734 C-793.40024418 1154.39071391 -795.18940335 1154.3974429 -796.9785614 1154.40444946 C-800.73182609 1154.41641548 -804.48499884 1154.42013155 -808.23828125 1154.41894531 C-813.0009453 1154.41874346 -817.76300365 1154.44590924 -822.52552509 1154.48048973 C-826.22607512 1154.50296674 -829.92648494 1154.50677638 -833.62709618 1154.50572586 C-835.37982433 1154.50805594 -837.13255794 1154.51672944 -838.88521767 1154.53239059 C-865.99976222 1154.75176913 -889.14358626 1146.14690318 -908.82983398 1127.06396484 C-925.29163871 1110.25048372 -933.86725896 1087.71568688 -933.80555725 1064.43118286 C-933.80683889 1062.66552375 -933.80683889 1062.66552375 -933.80814642 1060.86419475 C-933.80950701 1057.6054843 -933.80638826 1054.34681379 -933.80136836 1051.08810806 C-933.79704499 1047.57079827 -933.79851162 1044.05349029 -933.79927063 1040.53617859 C-933.79979467 1034.44502447 -933.7966604 1028.35388107 -933.79103279 1022.26272964 C-933.78290154 1013.45597623 -933.7803009 1004.64922799 -933.7790448 995.84247123 C-933.77685684 981.55366929 -933.77020368 967.26487306 -933.76074219 952.97607422 C-933.75156146 939.09684274 -933.74448385 925.21761281 -933.74023438 911.33837891 C-933.73997165 910.48268752 -933.73970893 909.62699613 -933.73943824 908.74537469 C-933.73813319 904.45257006 -933.73686949 900.15976542 -933.73562634 895.86696076 C-933.72526169 860.26074972 -933.70765032 824.65454531 -933.68530273 789.04833984 C-931.92882258 789.04337462 -931.92882258 789.04337462 -930.13685799 789.0383091 C-902.316604 788.95922749 -874.49639692 788.86998339 -846.67621613 788.76828823 C-843.24923225 788.75576992 -839.82224806 788.74333706 -836.39526367 788.73095703 C-835.71303599 788.72849104 -835.03080831 788.72602504 -834.32790707 788.72348432 C-823.29308206 788.68380121 -812.25824686 788.65103423 -801.22339226 788.62084003 C-789.89380819 788.58968479 -778.56427219 788.55091174 -767.23473442 788.50554979 C-760.87398155 788.48032227 -754.51325902 788.45852984 -748.15246964 788.44499588 C-742.16236253 788.43214164 -736.17235967 788.4100508 -730.1823101 788.38095665 C-727.98699383 788.37190719 -725.79166078 788.3661968 -723.59632683 788.36412621 C-720.59129162 788.36078507 -717.58654866 788.34525763 -714.58157349 788.32681274 C-713.71967474 788.32874748 -712.857776 788.33068221 -711.96975911 788.33267558 C-701.39955555 788.23616017 -692.67361566 786.55566378 -684.73999023 779.25927734 C-678.89109483 773.11671355 -676.62751051 767.03560605 -676.24780273 758.61083984 C-676.53920063 749.91746919 -679.83714106 743.04530111 -685.74780273 736.73974609 C-690.47033592 732.61705079 -696.42949366 729.93315107 -702.72452831 729.90967464 C-703.96138497 729.90146298 -703.96138497 729.90146298 -705.22322863 729.89308542 C-706.12886296 729.89210731 -707.03449728 729.89112921 -707.96757507 729.89012146 C-708.92977315 729.88518348 -709.89197123 729.88024551 -710.88332683 729.87515789 C-714.12159761 729.85974626 -717.35984851 729.85141234 -720.59814453 729.84301758 C-722.91383032 729.83344194 -725.22951436 729.82343204 -727.54519653 729.8130188 C-733.84439354 729.78592967 -740.14359807 729.76494182 -746.44282126 729.74501681 C-753.02120578 729.72318196 -759.599567 729.69578106 -766.17793274 729.66896057 C-777.22342858 729.6245169 -788.26893402 729.58385184 -799.31445312 729.5456543 C-810.69206678 729.50629888 -822.06966978 729.46487255 -833.44726562 729.4206543 C-834.14842142 729.41793002 -834.84957721 729.41520575 -835.57198014 729.41239893 C-839.08942512 729.39871944 -842.60686993 729.38499917 -846.12431467 729.37125862 C-875.31128819 729.25729535 -904.49828576 729.15055898 -933.68530273 729.04833984 C-933.77691218 683.29739951 -933.84736884 637.5464689 -933.88956405 591.79545488 C-933.89456672 586.39081743 -933.89974402 580.98618015 -933.9050293 575.58154297 C-933.90607854 574.50560338 -933.90712778 573.4296638 -933.90820882 572.32111998 C-933.92560123 554.91296076 -933.95713251 537.50485452 -933.99391392 520.0967267 C-934.03135572 502.2266463 -934.05354544 484.3565936 -934.06165671 466.48647559 C-934.06713776 455.46482384 -934.08443235 444.44332186 -934.1169686 433.42171623 C-934.13815647 425.85781578 -934.14449311 418.29399245 -934.13930824 410.7300645 C-934.13675311 406.36985373 -934.14059513 402.00990421 -934.16212463 397.64974022 C-934.18173166 393.64948902 -934.18248214 389.64967229 -934.16889831 385.64940019 C-934.16722193 384.21039003 -934.17217581 382.77135164 -934.18483546 381.33239619 C-934.34046814 362.53299867 -928.7044756 347.21167214 -915.53686523 333.77880859 C-900.01360653 318.91475677 -881.80932987 316.73935582 -861.29146004 316.79665756 C-859.40548488 316.79456987 -857.51951052 316.79160632 -855.63353795 316.78784883 C-850.44346487 316.78005535 -845.25346612 316.78472356 -840.06339424 316.79140474 C-834.41949161 316.79647387 -828.77560045 316.78995994 -823.13169944 316.78491807 C-813.23700076 316.77768867 -803.3423239 316.77791754 -793.44762421 316.78301239 C-782.83149509 316.78846384 -772.21537639 316.78967359 -761.59924698 316.78553772 C-760.92839882 316.78527937 -760.25755067 316.78502103 -759.56637378 316.78475486 C-756.83401944 316.78368829 -754.10166512 316.78259087 -751.36931082 316.7814543 C-725.92204833 316.77087663 -700.4747944 316.77015804 -675.02753067 316.77574921 C-674.27350447 316.7759148 -673.51947826 316.77608039 -672.74260278 316.776251 C-671.60973987 316.77649979 -671.60973987 316.77649979 -670.45399083 316.7767536 C-647.44195065 316.78180059 -624.429914 316.78310249 -601.41787338 316.78070831 C-599.87668555 316.78055335 -598.33549771 316.78039904 -596.79430988 316.78024537 C-590.60066789 316.77962442 -584.4070259 316.77898709 -578.21338392 316.77832585 C-560.89797739 316.77649172 -543.58257085 316.77535059 -526.26716423 316.77475357 C-525.47860617 316.77472628 -524.69004812 316.77469899 -523.87759436 316.77467087 C-498.74624668 316.77385217 -473.61490023 316.77610662 -448.48355293 316.78045273 C-447.26074559 316.78066348 -447.26074559 316.78066348 -446.01323507 316.78087848 C-432.77516855 316.78316833 -419.53710205 316.78560728 -406.29903556 316.78805883 C-353.84201313 316.79776294 -301.3850009 316.79732834 -248.92797852 316.78759766 C-235.71799788 316.78515513 -222.50801724 316.78273296 -209.29803658 316.78045273 C-208.07784079 316.78024138 -208.07784079 316.78024138 -206.83299459 316.78002577 C-181.74390213 316.77571004 -156.65481052 316.77388552 -131.5657177 316.77475357 C-130.38338683 316.77479432 -130.38338683 316.77479432 -129.1771705 316.7748359 C-111.86989083 316.77546102 -94.56261125 316.7767286 -77.25533167 316.77857458 C-71.06156967 316.77923282 -64.86780767 316.77985899 -58.67404568 316.780476 C-57.13326563 316.78063078 -55.59248558 316.78078824 -54.05170554 316.78094839 C-31.06006963 316.78333164 -8.06843772 316.7813102 14.92319769 316.776251 C16.05200152 316.77600261 16.05200152 316.77600261 17.20360947 316.77574921 C18.3303212 316.77550116 18.3303212 316.77550116 19.47979478 316.7752481 C44.87428049 316.76971867 70.26875593 316.77178684 95.66324018 316.78231069 C98.39663424 316.7834153 101.13002831 316.78448872 103.86342239 316.78553772 C104.53420652 316.78579813 105.20499064 316.78605855 105.89610155 316.78632685 C117.11199112 316.79049304 128.32786972 316.78682037 139.54375852 316.78101835 C149.32899037 316.77651611 159.11420281 316.77935616 168.8994318 316.78802788 C174.46518088 316.79276048 180.03088178 316.79446469 185.59662925 316.78721592 C218.18050486 316.74836663 248.74712291 318.55626062 281.31469727 323.04833984 C281.64469727 292.02833984 281.97469727 261.00833984 282.31469727 229.04833984 C275.43859619 230.03584229 268.56249512 231.02334473 261.47802734 232.04077148 C232.56551555 236.17813123 203.63516075 240.18368567 174.70141602 244.16943359 C173.35823687 244.35448635 172.01505788 244.53954027 170.67187905 244.72459531 C158.08362816 246.45883527 145.49521973 248.19192919 132.90645123 249.9224081 C130.04440273 250.31585006 127.1823563 250.70930711 124.3203125 251.1027832 C123.60949734 251.20050559 122.89868217 251.29822799 122.16632716 251.39891166 C110.54355073 252.99698888 98.92168563 254.60160149 87.3001497 256.20867228 C75.25795656 257.87379282 63.21493183 259.53278935 51.17108566 261.18591172 C44.45159917 262.10838011 37.73250107 263.03349377 31.01434898 263.9656353 C24.73157793 264.8370603 18.44779987 265.70081807 12.16317177 266.55874443 C9.86666118 266.87359055 7.57052491 267.19118161 5.27481079 267.5117836 C-27.8952986 272.13952093 -27.8952986 272.13952093 -39.93920898 264.64599609 C-46.25315159 259.74580155 -50.81841194 252.75965262 -52.02664995 244.79945135 C-52.59206248 238.24436438 -52.4806511 231.67177547 -52.42993164 225.09863281 C-52.43479404 222.88650835 -52.44223904 220.67438829 -52.45205688 218.46228027 C-52.47079066 212.4829342 -52.45209696 206.50424772 -52.42539263 200.52495337 C-52.40267805 194.25427559 -52.4109851 187.98362826 -52.41488647 181.71292114 C-52.41664947 171.18677218 -52.39469314 160.6608383 -52.35766602 150.13476562 C-52.31964611 139.32348841 -52.30549761 128.51251117 -52.31665039 117.70117188 C-52.33008261 104.64172126 -52.32344428 91.58242134 -52.29844284 78.52298355 C-52.28917302 73.54634261 -52.2873935 68.56978304 -52.29161453 63.59313583 C-52.29539117 57.73080795 -52.27908971 51.86886291 -52.24749374 46.00662231 C-52.239034 43.85967722 -52.23728946 41.71269318 -52.24287415 39.56573868 C-52.24935752 36.62673364 -52.23105816 33.68885841 -52.20669556 30.74996948 C-52.2142542 29.90792902 -52.22181285 29.06588856 -52.22960055 28.19833171 C-52.10848257 19.89399407 -49.37307756 11.81813774 -43.65795898 5.64990234 C-30.15730819 -5.31102206 -15.92045374 -2.94338001 0 0 Z M162.31469727 379.04833984 C162.31469727 474.08833984 162.31469727 569.12833984 162.31469727 667.04833984 C298.60469727 667.04833984 434.89469727 667.04833984 575.31469727 667.04833984 C561.10718604 610.21829493 534.95115307 558.86585707 497.31469727 514.04833984 C496.50645508 513.05447266 495.69821289 512.06060547 494.86547852 511.03662109 C488.36067075 503.13911731 481.29424019 495.83948123 474.06469727 488.61083984 C473.59311188 488.13834808 473.12152649 487.66585632 472.63565063 487.17904663 C467.03842419 481.58303706 461.35808394 476.15975875 455.31469727 471.04833984 C454.67516113 470.50201904 454.035625 469.95569824 453.37670898 469.39282227 C443.09785178 460.66103144 432.49729337 452.58545108 421.31469727 445.04833984 C420.29472656 444.35877197 420.29472656 444.35877197 419.25415039 443.65527344 C372.42417517 412.19347645 319.45055338 391.23417403 263.62719727 382.79833984 C262.63292725 382.64727783 261.63865723 382.49621582 260.61425781 382.34057617 C227.6163452 377.67470975 196.07074078 379.04833984 162.31469727 379.04833984 Z M-804.68530273 450.04833984 C-809.29733442 457.83244763 -811.80454161 464.04060978 -811.82574463 473.06777954 C-811.82871575 473.77467969 -811.83168687 474.48157984 -811.83474803 475.20990121 C-811.84341983 477.57874823 -811.84494201 479.94754462 -811.84643555 482.31640625 C-811.8510649 484.01503609 -811.85608972 485.71366489 -811.86148071 487.41229248 C-811.87459786 492.02828193 -811.88104866 496.64425684 -811.88549137 501.26026201 C-811.88842399 504.14622092 -811.89252923 507.03217587 -811.89699554 509.91813278 C-811.91067042 518.95340412 -811.92033638 527.98866639 -811.92419744 537.02394736 C-811.92867436 547.44253782 -811.94620534 557.86099683 -811.97519803 568.27954733 C-811.99684495 576.33916828 -812.00690337 584.39875234 -812.00823855 592.45840204 C-812.00928468 597.26872269 -812.01515123 602.07891978 -812.03305817 606.88920975 C-812.0495903 611.41840037 -812.05166948 615.94737526 -812.04291916 620.47658539 C-812.04215146 622.13332829 -812.0464561 623.79008304 -812.05637741 625.44679642 C-812.12478422 637.58789515 -811.72268393 648.46064211 -803.03686523 657.82568359 C-792.66873505 667.83410314 -780.59804444 667.63224711 -767.07788086 667.56591797 C-765.21235103 667.57134648 -763.34682549 667.57847321 -761.48130798 667.5871582 C-756.44201724 667.6053078 -751.40305609 667.5983587 -746.36375999 667.58564186 C-741.0744886 667.5754707 -735.78524425 667.58491893 -730.49597168 667.59118652 C-721.61583421 667.59845097 -712.73583009 667.58890682 -703.85571289 667.56982422 C-693.6087699 667.54805785 -683.36214534 667.55511007 -673.11521006 667.57712984 C-664.29617808 667.59531814 -655.47724161 667.59782541 -646.65819693 667.58737516 C-641.40025715 667.58115908 -636.14246675 667.58025254 -630.88453674 667.59352112 C-625.93985246 667.605129 -620.99557624 667.59696407 -616.05093575 667.57394409 C-614.24303933 667.56868329 -612.43510819 667.57012539 -610.62722588 667.57899475 C-598.08030283 667.63484483 -586.9569411 667.17859941 -577.40405273 657.95849609 C-567.85963191 647.35117386 -568.38923855 634.97967639 -568.42651367 621.45043945 C-568.4237993 619.78870999 -568.42023587 618.12698174 -568.41589355 616.46525574 C-568.40682109 611.97775309 -568.41029229 607.490343 -568.41665173 603.00283885 C-568.4217376 598.29319569 -568.41701318 593.58356012 -568.41387939 588.87391663 C-568.41024763 580.96809475 -568.41501847 573.06231032 -568.42456055 565.15649414 C-568.43544734 556.03148396 -568.4319147 546.90656314 -568.42090774 537.78155512 C-568.41181684 529.92904077 -568.41055828 522.07655324 -568.41578507 514.22403532 C-568.41889438 509.54186353 -568.4193427 504.85973368 -568.4127121 500.17756462 C-568.40691286 495.77554093 -568.41098251 491.37363193 -568.42250061 486.97162056 C-568.42513328 485.36122452 -568.42440605 483.75081874 -568.41997528 482.14042664 C-568.38681846 468.85977342 -569.03688879 458.54911455 -578.12280273 448.29833984 C-585.20927011 442.0760758 -591.36631783 439.7413739 -600.74249268 439.78091431 C-601.53685628 439.77638319 -602.33121988 439.77185208 -603.1496551 439.76718366 C-605.80254787 439.75455735 -608.45523487 439.75615889 -611.1081543 439.7578125 C-613.01397464 439.75182609 -614.91979256 439.74502029 -616.8256073 439.73745728 C-621.9972591 439.71980021 -627.16884469 439.71510198 -632.34052372 439.7138257 C-635.57391357 439.71240323 -638.80728663 439.70813177 -642.0406723 439.70283127 C-653.32766283 439.68433103 -664.61460614 439.67616053 -675.90161133 439.67773438 C-686.41144824 439.67893534 -696.92107965 439.65784169 -707.43086457 439.62624705 C-716.46292403 439.60006545 -725.49491644 439.58936789 -734.52701354 439.59064519 C-739.91747879 439.59115433 -745.30776143 439.58549804 -750.69818878 439.56428909 C-755.77080856 439.5448754 -760.84307213 439.54480374 -765.91570473 439.55932236 C-767.77240585 439.56140775 -769.62912945 439.55672569 -771.48579216 439.54460144 C-783.78773063 439.46950233 -796.24849027 439.6360786 -804.68530273 450.04833984 Z M-498.68530273 448.04833984 C-505.25071407 456.80222162 -507.8040829 464.15090412 -507.8190155 475.15643311 C-507.82128106 475.8487079 -507.82354662 476.54098269 -507.82588083 477.25423551 C-507.83218391 479.5615974 -507.83139384 481.86890001 -507.83056641 484.17626953 C-507.83356024 485.83578568 -507.83696329 487.49530113 -507.84074402 489.15481567 C-507.8495663 493.65499203 -507.85192141 498.15514935 -507.8525598 502.65533352 C-507.85327142 505.4699441 -507.85540786 508.28454986 -507.85805702 511.09915924 C-507.86730521 520.92727464 -507.87139265 530.75537649 -507.87060547 540.58349609 C-507.87000511 549.72998248 -507.88055016 558.87640982 -507.89634913 568.02288127 C-507.90944703 575.88721517 -507.91478841 583.75152982 -507.91415006 591.61587453 C-507.9138957 596.30764547 -507.91671273 600.99936393 -507.92732811 605.69112396 C-507.93704677 610.10704146 -507.93706254 614.52285671 -507.92981148 618.93877792 C-507.92877025 620.55359167 -507.93110093 622.1684119 -507.93717194 623.78321457 C-507.98518949 637.4473367 -507.56197079 648.20677995 -498.12280273 658.80224609 C-488.34634853 668.17918174 -475.65739701 667.62319322 -463.04614258 667.55004883 C-461.17736912 667.55383762 -459.30859848 667.55934225 -457.43983459 667.56642151 C-452.39240124 667.58031839 -447.34531097 667.56924784 -442.29789686 667.55271029 C-437.00235735 667.53880345 -431.70683661 667.54532612 -426.4112854 667.54884338 C-417.52275092 667.55154059 -408.63435186 667.53811045 -399.74584961 667.51489258 C-389.4830027 667.48826961 -379.22038188 667.48654281 -368.95751226 667.49828094 C-359.06419137 667.50907439 -349.17095192 667.5028604 -339.27763748 667.48872566 C-335.07609751 667.48298112 -330.87461744 667.48303644 -326.67307663 667.48779106 C-321.7235268 667.49257706 -316.77422338 667.48239206 -311.82472038 667.46083641 C-310.01276035 667.45529106 -308.20077653 667.45478246 -306.38881493 667.45978928 C-294.17061095 667.48930727 -283.17265905 667.42298327 -273.86889648 658.25927734 C-266.76968146 650.5820469 -264.56934597 643.32558426 -264.54486084 632.90864563 C-264.54188972 632.20089105 -264.5389186 631.49313648 -264.53585744 630.76393479 C-264.52720303 628.3981938 -264.52566495 626.0325036 -264.52416992 623.66674805 C-264.5195394 621.96797071 -264.51451442 620.26919441 -264.50912476 618.57041931 C-264.49602034 613.95862117 -264.48955949 609.34683758 -264.4851141 604.73502374 C-264.48217989 601.85123707 -264.47807439 598.96745434 -264.47360992 596.08366966 C-264.45993944 587.05374111 -264.45027089 578.02382161 -264.44640803 568.99388343 C-264.44192986 558.58379306 -264.42439124 548.17383416 -264.39540744 537.76378375 C-264.37376112 529.70838889 -264.36370216 521.65303094 -264.36236691 513.59760731 C-264.3613209 508.79065498 -264.35545652 503.9838263 -264.3375473 499.17690468 C-264.32101582 494.65180462 -264.31893567 490.1269205 -264.32768631 485.60180092 C-264.328454 483.94666972 -264.3241495 482.29152666 -264.31422806 480.63642502 C-264.2475352 468.81131202 -264.71454896 458.53824437 -272.58374023 449.09521484 C-279.73829735 442.1268358 -286.78253486 439.89874819 -296.50198364 439.90116882 C-297.29463839 439.89749214 -298.08729315 439.89381545 -298.90396774 439.89002734 C-301.56301956 439.87900453 -304.22203228 439.87514903 -306.88110352 439.87133789 C-308.78662744 439.86507213 -310.69215014 439.85842523 -312.59767151 439.85142517 C-318.85864411 439.83039401 -325.11961693 439.82002298 -331.38061523 439.81005859 C-333.53738289 439.80601055 -335.69415042 439.80189361 -337.85091782 439.79770851 C-347.98502718 439.77865814 -358.11912927 439.76442734 -368.2532531 439.75609654 C-379.94364328 439.74632732 -391.63384395 439.72001526 -403.32416737 439.67959565 C-412.36467082 439.64941278 -421.40512002 439.63462556 -430.44567287 439.63131553 C-435.84288687 439.62896734 -441.23989839 439.62003691 -446.63705826 439.59485435 C-451.71784332 439.57153105 -456.79829319 439.5673576 -461.87911797 439.57761574 C-463.73904855 439.57811019 -465.59899588 439.57181668 -467.45887566 439.55805969 C-484.49122793 439.38060491 -484.49122793 439.38060491 -498.68530273 448.04833984 Z M-196.68530273 451.04833984 C-201.5465473 457.5018531 -202.80366713 462.22841124 -202.84593201 470.32006836 C-202.85101983 471.05414225 -202.85610765 471.78821613 -202.86134964 472.54453468 C-202.87705102 475.00543665 -202.88559317 477.4663093 -202.89404297 479.92724609 C-202.90358352 481.69159632 -202.91347477 483.45594469 -202.9236908 485.22029114 C-202.9550601 491.01711817 -202.97534451 496.81395946 -202.99389648 502.61083984 C-202.99719381 503.5981031 -203.00049113 504.58536636 -203.00388837 505.60254669 C-203.03467442 514.91952725 -203.06137326 524.23651111 -203.07830715 533.55352783 C-203.10019457 545.45514129 -203.14212616 557.35630254 -203.21174473 569.25773525 C-203.25907185 577.63415234 -203.28325253 586.01044781 -203.29050404 594.38699436 C-203.29544809 599.38534094 -203.31040967 604.38317767 -203.35024834 609.38137817 C-203.38728105 614.08966506 -203.39547016 618.79715444 -203.3822422 623.50555992 C-203.38229588 625.2259917 -203.39248087 626.94646032 -203.41399384 628.66675758 C-203.54840883 640.03036153 -202.50857471 649.04377238 -194.91190243 658.18148804 C-184.84665784 667.99828081 -172.15528503 667.62608093 -159.04614258 667.55004883 C-157.17736912 667.55383762 -155.30859848 667.55934225 -153.43983459 667.56642151 C-148.39240124 667.58031839 -143.34531097 667.56924784 -138.29789686 667.55271029 C-133.00235735 667.53880345 -127.70683661 667.54532612 -122.4112854 667.54884338 C-113.52275092 667.55154059 -104.63435186 667.53811045 -95.74584961 667.51489258 C-85.4830027 667.48826961 -75.22038188 667.48654281 -64.95751226 667.49828094 C-55.06419137 667.50907439 -45.17095192 667.5028604 -35.27763748 667.48872566 C-31.07609751 667.48298112 -26.87461744 667.48303644 -22.67307663 667.48779106 C-17.7235268 667.49257706 -12.77422338 667.48239206 -7.82472038 667.46083641 C-6.01276035 667.45529106 -4.20077653 667.45478246 -2.38881493 667.45978928 C13.97991221 667.50653495 13.97991221 667.50653495 28.31469727 660.04833984 C36.2810881 652.04768496 39.42410613 645.14109146 39.46186829 633.83944702 C39.46554497 633.12423091 39.46922166 632.40901479 39.47300977 631.67212546 C39.48400229 629.28108409 39.4878829 626.89008624 39.49169922 624.49902344 C39.49796726 622.78216414 39.50461437 621.06530619 39.51161194 619.34844971 C39.5326158 613.71456846 39.54301153 608.08068706 39.55297852 602.44677734 C39.55702757 600.50393281 39.56114454 598.56108842 39.5653286 596.61824417 C39.58437293 587.48847 39.59860503 578.35870387 39.60694057 569.22891366 C39.61670766 558.7061645 39.64301664 548.18362599 39.68344146 537.66095102 C39.71364854 529.51721948 39.72841383 521.37354817 39.73172158 513.22976172 C39.73406698 508.37075482 39.74296082 503.51197315 39.76818275 498.65302658 C39.79154872 494.07781226 39.79566261 489.50297012 39.78542137 484.92771149 C39.78492795 483.25525547 39.79119071 481.58278059 39.80497742 479.91038132 C39.89919524 467.79638064 39.08577458 456.97684663 30.31469727 447.77099609 C23.25229208 441.68794788 16.6207389 439.89889722 7.49128723 439.90116882 C6.69792691 439.89749214 5.9045666 439.89381545 5.08716506 439.89002734 C2.42577926 439.87900457 -0.23556747 439.87514905 -2.89697266 439.87133789 C-4.8041191 439.86507218 -6.71126432 439.85842528 -8.6184082 439.85142517 C-14.88418733 439.83039524 -21.14996668 439.82002379 -27.41577148 439.81005859 C-29.5737999 439.80601064 -31.73182819 439.80189371 -33.88985634 439.79770851 C-44.02876907 439.77865921 -54.16767452 439.76442761 -64.3066017 439.75609654 C-76.00549186 439.74632464 -87.70419279 439.72000514 -99.40301627 439.67959565 C-108.44859959 439.64942434 -117.4941287 439.6346267 -126.53976136 439.63131553 C-131.94085577 439.62896622 -137.34174795 439.62002103 -142.74278831 439.59485435 C-147.82603258 439.57155098 -152.90894179 439.5673496 -157.99222565 439.57761574 C-159.85418882 439.57811065 -161.71616862 439.57180329 -163.57808113 439.55805969 C-177.17455096 439.46334254 -187.04982687 440.65714038 -196.68530273 451.04833984 Z " fill="#ff4404" transform="translate(952.685302734375,689.95166015625)"/>
<path d="M0 0 C6.48610124 5.64550252 12.21148084 12.12708409 17.97167969 18.49804688 C20.46339404 21.24544384 22.98476135 23.96527782 25.50390625 26.6875 C26.50667267 27.77328767 27.50927681 28.85922524 28.51171875 29.9453125 C29.00704102 30.48188477 29.50236328 31.01845703 30.01269531 31.57128906 C31.48706367 33.16924559 32.9604592 34.76809355 34.43359375 36.3671875 C39.79103038 42.18050041 45.16742499 47.97523321 50.56640625 53.75 C55.67501499 59.21495856 60.7489135 64.70949183 65.796875 70.23046875 C68.66881284 73.37083159 71.55397159 76.49888814 74.44140625 79.625 C74.94043457 80.16527832 75.43946289 80.70555664 75.95361328 81.26220703 C76.96495297 82.35698306 77.97634633 83.4517095 78.98779297 84.54638672 C81.49404729 87.25927586 83.99891071 89.97344859 86.50390625 92.6875 C87.50389949 93.77083957 88.50389949 94.85417291 89.50390625 95.9375 C107.50390625 115.4375 107.50390625 115.4375 109.00341797 117.06201172 C110.00499151 118.14702256 111.00661925 119.23198338 112.00830078 120.31689453 C114.48466897 122.99915757 116.96013689 125.68223934 119.43359375 128.3671875 C124.79103038 134.18050041 130.16742499 139.97523321 135.56640625 145.75 C140.67501499 151.21495856 145.7489135 156.70949183 150.796875 162.23046875 C153.66881284 165.37083159 156.55397159 168.49888814 159.44140625 171.625 C159.94043457 172.16527832 160.43946289 172.70555664 160.95361328 173.26220703 C161.96495297 174.35698306 162.97634633 175.4517095 163.98779297 176.54638672 C166.49404729 179.25927586 168.99891071 181.97344859 171.50390625 184.6875 C172.50389949 185.77083957 173.50389949 186.85417291 174.50390625 187.9375 C180.50390625 194.4375 180.50390625 194.4375 182.00341797 196.06201172 C183.00499151 197.14702256 184.00661925 198.23198338 185.00830078 199.31689453 C187.48466897 201.99915757 189.96013689 204.68223934 192.43359375 207.3671875 C197.79103038 213.18050041 203.16742499 218.97523321 208.56640625 224.75 C213.67501499 230.21495856 218.7489135 235.70949183 223.796875 241.23046875 C226.66881284 244.37083159 229.55397159 247.49888814 232.44140625 250.625 C232.94043457 251.16527832 233.43946289 251.70555664 233.95361328 252.26220703 C234.96495297 253.35698306 235.97634633 254.4517095 236.98779297 255.54638672 C239.49404729 258.25927586 241.99891071 260.97344859 244.50390625 263.6875 C245.50389949 264.77083957 246.50389949 265.85417291 247.50390625 266.9375 C265.50390624 286.43749999 265.50390624 286.43749999 267.00341797 288.06201172 C268.00499151 289.14702256 269.00661925 290.23198338 270.00830078 291.31689453 C272.48466897 293.99915757 274.96013689 296.68223934 277.43359375 299.3671875 C282.79103038 305.18050041 288.16742499 310.97523321 293.56640625 316.75 C298.67501499 322.21495856 303.7489135 327.70949183 308.796875 333.23046875 C311.66881284 336.37083159 314.55397159 339.49888814 317.44140625 342.625 C317.94043457 343.16527832 318.43946289 343.70555664 318.95361328 344.26220703 C319.96495297 345.35698306 320.97634633 346.4517095 321.98779297 347.54638672 C324.49404729 350.25927586 326.99891071 352.97344859 329.50390625 355.6875 C330.50389949 356.77083957 331.50389949 357.85417291 332.50390625 358.9375 C350.50390625 378.4375 350.50390625 378.4375 352.00341797 380.06201172 C353.00499151 381.14702256 354.00661925 382.23198338 355.00830078 383.31689453 C357.48466897 385.99915757 359.96013689 388.68223934 362.43359375 391.3671875 C367.79103038 397.18050041 373.16742499 402.97523321 378.56640625 408.75 C383.67501499 414.21495856 388.7489135 419.70949183 393.796875 425.23046875 C396.66881284 428.37083159 399.55397159 431.49888814 402.44140625 434.625 C402.94043457 435.16527832 403.43946289 435.70555664 403.95361328 436.26220703 C404.96495297 437.35698306 405.97634633 438.4517095 406.98779297 439.54638672 C409.49404729 442.25927586 411.99891071 444.97344859 414.50390625 447.6875 C415.50389949 448.77083957 416.50389949 449.85417291 417.50390625 450.9375 C423.50390625 457.4375 423.50390625 457.4375 425.00341797 459.06201172 C426.00499151 460.14702256 427.00661925 461.23198338 428.00830078 462.31689453 C430.48466897 464.99915757 432.96013689 467.68223934 435.43359375 470.3671875 C440.79103038 476.18050041 446.16742499 481.97523321 451.56640625 487.75 C456.67501499 493.21495856 461.7489135 498.70949183 466.796875 504.23046875 C469.66881284 507.37083159 472.55397159 510.49888814 475.44140625 513.625 C475.94043457 514.16527832 476.43946289 514.70555664 476.95361328 515.26220703 C477.96495297 516.35698306 478.97634633 517.4517095 479.98779297 518.54638672 C482.49404729 521.25927586 484.99891071 523.97344859 487.50390625 526.6875 C488.50389949 527.77083957 489.50389949 528.85417291 490.50390625 529.9375 C496.50390625 536.4375 502.50390625 542.9375 508.50390625 549.4375 C508.99898682 549.97383057 509.49406738 550.51016113 510.00415039 551.06274414 C511.00336363 552.14523871 512.00254987 553.22775821 513.00170898 554.31030273 C516.01887678 557.57918797 519.03668501 560.84747783 522.05639648 564.11401367 C523.05875284 565.19999427 524.05958203 566.28738653 525.05883789 567.3762207 C527.5186883 570.05458061 529.99712022 572.70820471 532.52734375 575.3203125 C541.35385839 584.51745612 546.96441052 593.1453451 546.7734375 606.18359375 C545.92873184 615.59777712 541.69314024 623.12765581 534.50390625 629.1875 C526.42845122 634.71349246 518.0563963 635.28129657 508.50390625 634.1875 C497.87904202 631.85379858 491.21995069 624.20800537 484.36206055 616.30175781 C481.40595051 612.9382165 478.32990612 609.69109336 475.25390625 606.4375 C469.85153721 600.69935663 464.49130711 594.92814591 459.17578125 589.109375 C454.80524906 584.32990413 450.40649615 579.57653803 446.01123047 574.81982422 C444.52980491 573.21554639 443.04981633 571.60995634 441.5703125 570.00390625 C436.21438624 564.19170142 430.83913161 558.39842348 425.44140625 552.625 C420.33279751 547.16004144 415.258899 541.66550817 410.2109375 536.14453125 C407.33899966 533.00416841 404.45384091 529.87611186 401.56640625 526.75 C401.06737793 526.20972168 400.56834961 525.66944336 400.05419922 525.11279297 C399.04285953 524.01801694 398.03146617 522.9232905 397.02001953 521.82861328 C394.51376521 519.11572414 392.00890179 516.40155141 389.50390625 513.6875 C388.50391301 512.60416043 387.50391301 511.52082709 386.50390625 510.4375 C380.50390626 503.93750001 380.50390626 503.93750001 379.00439453 502.31298828 C378.00282099 501.22797744 377.00119325 500.14301662 375.99951172 499.05810547 C373.52314353 496.37584243 371.04767561 493.69276066 368.57421875 491.0078125 C363.21678212 485.19449959 357.84038751 479.39976679 352.44140625 473.625 C347.33279751 468.16004144 342.258899 462.66550817 337.2109375 457.14453125 C334.33899966 454.00416841 331.45384091 450.87611186 328.56640625 447.75 C328.06737793 447.20972168 327.56834961 446.66944336 327.05419922 446.11279297 C326.04285953 445.01801694 325.03146617 443.9232905 324.02001953 442.82861328 C321.51376521 440.11572414 319.00890179 437.40155141 316.50390625 434.6875 C315.50391301 433.60416043 314.50391301 432.52082709 313.50390625 431.4375 C307.50390626 424.93750001 307.50390626 424.93750001 306.00439453 423.31298828 C305.00282099 422.22797744 304.00119325 421.14301662 302.99951172 420.05810547 C300.52314353 417.37584243 298.04767561 414.69276066 295.57421875 412.0078125 C290.21678212 406.19449959 284.84038751 400.39976679 279.44140625 394.625 C274.33279751 389.16004144 269.258899 383.66550817 264.2109375 378.14453125 C261.33899966 375.00416841 258.45384091 371.87611186 255.56640625 368.75 C255.06737793 368.20972168 254.56834961 367.66944336 254.05419922 367.11279297 C253.04285953 366.01801694 252.03146617 364.9232905 251.02001953 363.82861328 C249.01343966 361.65659558 247.00776933 359.48373927 245.00219727 357.31079102 C244.00146467 356.22656892 243.00065056 355.14242206 241.99975586 354.05834961 C239.52329299 351.37601745 237.04775353 348.69284524 234.57421875 346.0078125 C229.21678212 340.19449959 223.84038751 334.39976679 218.44140625 328.625 C213.33279751 323.16004144 208.258899 317.66550817 203.2109375 312.14453125 C200.33899966 309.00416841 197.45384091 305.87611186 194.56640625 302.75 C194.06737793 302.20972168 193.56834961 301.66944336 193.05419922 301.11279297 C192.04285953 300.01801694 191.03146617 298.9232905 190.02001953 297.82861328 C187.51376521 295.11572414 185.00890179 292.40155141 182.50390625 289.6875 C181.50391301 288.60416043 180.50391301 287.52082709 179.50390625 286.4375 C173.50390626 279.93750001 173.50390626 279.93750001 172.00439453 278.31298828 C171.00282099 277.22797744 170.00119325 276.14301662 168.99951172 275.05810547 C166.52314353 272.37584243 164.04767561 269.69276066 161.57421875 267.0078125 C156.21678212 261.19449959 150.84038751 255.39976679 145.44140625 249.625 C140.33279751 244.16004144 135.258899 238.66550817 130.2109375 233.14453125 C127.33899966 230.00416841 124.45384091 226.87611186 121.56640625 223.75 C121.06737793 223.20972168 120.56834961 222.66944336 120.05419922 222.11279297 C119.04285953 221.01801694 118.03146617 219.9232905 117.02001953 218.82861328 C115.01343966 216.65659558 113.00776933 214.48373927 111.00219727 212.31079102 C110.00146467 211.22656892 109.00065056 210.14242206 107.99975586 209.05834961 C105.52329299 206.37601745 103.04775353 203.69284524 100.57421875 201.0078125 C95.21678212 195.19449959 89.84038751 189.39976679 84.44140625 183.625 C79.33279751 178.16004144 74.258899 172.66550817 69.2109375 167.14453125 C66.33899966 164.00416841 63.45384091 160.87611186 60.56640625 157.75 C60.06737793 157.20972168 59.56834961 156.66944336 59.05419922 156.11279297 C58.04285953 155.01801694 57.03146617 153.9232905 56.02001953 152.82861328 C53.51376521 150.11572414 51.00890179 147.40155141 48.50390625 144.6875 C47.50391301 143.60416043 46.50391301 142.52082709 45.50390625 141.4375 C39.50390625 134.9375 39.50390625 134.9375 38.00439453 133.31298828 C37.00282099 132.22797744 36.00119325 131.14301662 34.99951172 130.05810547 C32.52314353 127.37584243 30.04767561 124.69276066 27.57421875 122.0078125 C22.21678212 116.19449959 16.84038751 110.39976679 11.44140625 104.625 C5.89366648 98.69027893 0.39147315 92.71640187 -5.09130859 86.72167969 C-7.70036211 83.87230668 -10.31599902 81.02902585 -12.93359375 78.1875 C-13.67826904 77.37708252 -13.67826904 77.37708252 -14.43798828 76.55029297 C-17.06554289 73.70010989 -19.73212165 70.90573261 -22.49609375 68.1875 C-23.34429688 68.85394531 -24.1925 69.52039063 -25.06640625 70.20703125 C-123.99609375 147.9375 -123.99609375 147.9375 -125.74584961 149.31225586 C-126.91339785 150.22965009 -128.08087824 151.14713067 -129.24829102 152.06469727 C-132.15092165 154.34594245 -135.05468649 156.62571214 -137.9609375 158.90234375 C-143.31304473 163.09750342 -148.652517 167.3057858 -153.95117188 171.56835938 C-159.88280786 176.33986466 -165.86945507 181.02288133 -171.93359375 185.625 C-178.31254333 190.46743016 -184.56032687 195.44602791 -190.75537109 200.52099609 C-194.80614617 203.83325979 -198.89728143 207.07783111 -203.05859375 210.25 C-207.67478889 213.77034562 -212.22556286 217.35783813 -216.74609375 221 C-222.07899349 225.29422048 -227.47890456 229.4867456 -232.93359375 233.625 C-239.31262553 238.4673178 -245.56033114 243.44603141 -251.75537109 248.52099609 C-255.80614617 251.83325979 -259.89728143 255.07783111 -264.05859375 258.25 C-268.67478889 261.77034562 -273.22556286 265.35783813 -277.74609375 269 C-283.07899349 273.29422048 -288.47890456 277.4867456 -293.93359375 281.625 C-300.31181336 286.46670128 -306.5583322 291.44522278 -312.75317383 296.51879883 C-317.85884953 300.6928327 -323.05178301 304.73248441 -328.29296875 308.734375 C-335.93214135 314.56946256 -343.46298306 320.54617885 -350.95336914 326.57055664 C-356.88487069 331.3405798 -362.87026828 336.02349848 -368.93359375 340.625 C-375.31254333 345.46743016 -381.56032687 350.44602791 -387.75537109 355.52099609 C-391.80614617 358.83325979 -395.89728143 362.07783111 -400.05859375 365.25 C-404.67478889 368.77034562 -409.22556286 372.35783813 -413.74609375 376 C-419.07899349 380.29422048 -424.47890456 384.4867456 -429.93359375 388.625 C-436.31018882 393.4654681 -442.55433102 398.44361067 -448.7487793 403.5144043 C-458.76876352 411.7028454 -469.1252074 419.45137937 -479.49609375 427.1875 C-476.17983938 435.11371236 -467.82785843 441.00008684 -461.42578125 446.4765625 C-458.65639213 448.93201277 -456.09574251 451.57846339 -453.5 454.21484375 C-450.91363224 456.76087829 -448.18074095 459.10771557 -445.4296875 461.47265625 C-442.93177819 463.6879738 -440.61584386 466.0564817 -438.27734375 468.4375 C-436.41219701 470.26992487 -434.47681629 471.98103135 -432.49609375 473.6875 C-429.26653008 476.46989332 -426.26286722 479.39769429 -423.27734375 482.4375 C-421.41219701 484.26992487 -419.47681629 485.98103135 -417.49609375 487.6875 C-414.88961766 489.9330794 -412.40674854 492.23301512 -409.99609375 494.6875 C-407.60556208 497.12139732 -405.14563113 499.40105559 -402.55859375 501.625 C-399.0381481 504.65706012 -395.78140498 507.8818274 -392.5234375 511.19140625 C-389.80740445 513.86557367 -386.95278023 516.35680457 -384.0625 518.83984375 C-383.18360977 519.59599619 -382.31591524 520.36767851 -381.49609375 521.1875 C-381.40099816 523.80438441 -381.37053375 526.394789 -381.38256836 529.01196289 C-381.38242233 529.83140884 -381.38227631 530.6508548 -381.38212585 531.49513245 C-381.38282523 534.21683353 -381.39061874 536.93846705 -381.3984375 539.66015625 C-381.40030159 541.54202741 -381.40172554 543.42389906 -381.40272522 545.30577087 C-381.40655108 550.26898529 -381.41638194 555.23217064 -381.4274292 560.19537354 C-381.43764185 565.25589606 -381.44222253 570.31642327 -381.44726562 575.37695312 C-381.45800415 585.31381488 -381.47508139 595.25065503 -381.49609375 605.1875 C-385.35945369 603.38188865 -388.17502937 600.91265517 -391.24609375 598 C-391.80828613 597.47390137 -392.37047852 596.94780273 -392.94970703 596.40576172 C-394.16597665 595.26652583 -395.38026161 594.12516816 -396.59277344 592.98193359 C-398.51753155 591.16728863 -400.44746678 589.3583116 -402.37890625 587.55078125 C-405.07364435 585.02819591 -407.76619805 582.50331267 -410.45703125 579.9765625 C-414.29638619 576.37268309 -418.14485456 572.77867133 -421.99609375 569.1875 C-427.17019357 564.36206287 -432.33612828 559.52804795 -437.49609375 554.6875 C-444.53236129 548.08722048 -451.58200452 541.50141643 -458.63720703 534.92138672 C-461.75755678 532.01086349 -464.87676477 529.09911713 -467.99609375 526.1875 C-469.24608834 525.02082754 -470.49608834 523.85416087 -471.74609375 522.6875 C-499.24609375 497.02083333 -526.74609375 471.35416667 -554.24609375 445.6875 C-554.86476318 445.11008057 -555.48343262 444.53266113 -556.12084961 443.93774414 C-557.37168506 442.77028686 -558.62249884 441.60280637 -559.87329102 440.43530273 C-562.98533196 437.53054226 -566.09774027 434.62617748 -569.2109375 431.72265625 C-576.32122558 425.09037073 -583.42151687 418.44760298 -590.51318359 411.79541016 C-596.87777271 405.82657883 -603.25618615 399.87264139 -609.63720703 393.92138672 C-612.75755678 391.01086349 -615.87676477 388.09911713 -618.99609375 385.1875 C-620.24608834 384.02082754 -621.49608834 382.85416087 -622.74609375 381.6875 C-655.24609375 351.35416667 -687.74609375 321.02083333 -720.24609375 290.6875 C-720.86476318 290.11008057 -721.48343262 289.53266113 -722.12084961 288.93774414 C-723.37168506 287.77028686 -724.62249884 286.60280637 -725.87329102 285.43530273 C-728.98533196 282.53054226 -732.09774027 279.62617748 -735.2109375 276.72265625 C-740.97399649 271.3470298 -746.73439673 265.96865902 -752.48168945 260.57617188 C-753.81626723 259.32489401 -755.15202813 258.07487673 -756.48901367 256.82617188 C-759.91901195 253.62029877 -763.32537221 250.39389377 -766.69921875 247.12890625 C-767.37855469 246.47792969 -768.05789063 245.82695313 -768.7578125 245.15625 C-770.05460451 243.91296021 -771.34406983 242.66196946 -772.625 241.40234375 C-773.20636719 240.84804688 -773.78773438 240.29375 -774.38671875 239.72265625 C-774.89235352 239.231604 -775.39798828 238.74055176 -775.91894531 238.23461914 C-777.73597608 236.81875208 -777.73597608 236.81875208 -781.49609375 237.1875 C-783.56547214 238.9878592 -785.38652402 240.75347149 -787.24609375 242.75 C-788.31704774 243.86256969 -789.38996296 244.97325488 -790.46484375 246.08203125 C-790.98433594 246.62037598 -791.50382813 247.1587207 -792.0390625 247.71337891 C-793.86010894 249.55578481 -795.77390268 251.25878975 -797.74609375 252.9375 C-801.18129111 255.86167627 -804.32847838 259.00160493 -807.4921875 262.21484375 C-810.07855526 264.76087829 -812.81144655 267.10771557 -815.5625 269.47265625 C-818.06040931 271.6879738 -820.37634364 274.0564817 -822.71484375 276.4375 C-825.2150556 278.89384849 -827.87289891 281.15059368 -830.52734375 283.4375 C-832.42632446 285.12548286 -834.21615363 286.87519734 -835.99609375 288.6875 C-838.38662542 291.12139732 -840.84655637 293.40105559 -843.43359375 295.625 C-846.24185722 298.04367779 -848.89579968 300.54649683 -851.49609375 303.1875 C-854.71767925 306.45952128 -858.0820152 309.48066055 -861.5625 312.47265625 C-864.06040931 314.6879738 -866.37634364 317.0564817 -868.71484375 319.4375 C-871.2153052 321.8940937 -873.87182861 324.15190208 -876.53125 326.43359375 C-878.43160616 328.12993553 -880.17823342 329.90545277 -881.93359375 331.75 C-889.14615117 339.07809037 -897.1787937 343.47358088 -907.4609375 344.20703125 C-915.90493267 344.15269409 -923.1111828 341.79733702 -929.5234375 336.26953125 C-935.79946349 329.64552758 -939.4207127 321.89641333 -939.5234375 312.75390625 C-938.8617307 301.87816119 -934.58765837 294.32413796 -926.74609375 287 C-925.72902344 286.0109668 -925.72902344 286.0109668 -924.69140625 285.00195312 C-920.67589565 281.12767246 -916.53136603 277.41981833 -912.29785156 273.78588867 C-910.45548859 272.15147805 -908.72049156 270.44529831 -906.99609375 268.6875 C-903.95776958 265.59393357 -900.74844055 262.76644493 -897.46484375 259.9375 C-895.56586304 258.24951714 -893.77603387 256.49980266 -891.99609375 254.6875 C-888.95776958 251.59393357 -885.74844055 248.76644493 -882.46484375 245.9375 C-880.56586304 244.24951714 -878.77603387 242.49980266 -876.99609375 240.6875 C-873.95776958 237.59393357 -870.74844055 234.76644493 -867.46484375 231.9375 C-865.56586304 230.24951714 -863.77603387 228.49980266 -861.99609375 226.6875 C-859.60556208 224.25360268 -857.14563113 221.97394441 -854.55859375 219.75 C-851.11188159 216.78144444 -847.90498516 213.64670896 -844.74609375 210.375 C-842.79410641 208.47723453 -840.80093056 206.69018548 -838.74609375 204.90625 C-834.56092908 201.27033984 -830.51953251 197.50063129 -826.49609375 193.6875 C-825.76841797 193.00187988 -825.04074219 192.31625977 -824.29101562 191.60986328 C-820.56301981 188.09657301 -816.84857152 184.57013606 -813.15234375 181.0234375 C-812.10433594 180.02473633 -812.10433594 180.02473633 -811.03515625 179.00585938 C-809.72257083 177.75487998 -808.41486196 176.4987534 -807.11328125 175.23632812 C-798.83202746 167.36913702 -790.21220542 161.38700035 -778.49609375 161.1875 C-763.19425815 162.17969395 -753.42165721 173.10136257 -743.20703125 183.5078125 C-740.73018544 185.93941912 -738.09355626 188.17276307 -735.46484375 190.4375 C-732.95699049 192.6667029 -730.62752567 195.0445875 -728.27734375 197.4375 C-726.41219701 199.26992487 -724.47681629 200.98103135 -722.49609375 202.6875 C-719.88961766 204.9330794 -717.40674854 207.23301512 -714.99609375 209.6875 C-712.60556208 212.12139732 -710.14563113 214.40105559 -707.55859375 216.625 C-704.02974612 219.66429651 -700.76604348 222.89766847 -697.5 226.21484375 C-694.91363224 228.76087829 -692.18074095 231.10771557 -689.4296875 233.47265625 C-686.93177819 235.6879738 -684.61584386 238.0564817 -682.27734375 240.4375 C-680.41219701 242.26992487 -678.47681629 243.98103135 -676.49609375 245.6875 C-673.88961766 247.9330794 -671.40674854 250.23301512 -668.99609375 252.6875 C-666.60556208 255.12139732 -664.14563113 257.40105559 -661.55859375 259.625 C-658.02974612 262.66429651 -654.76604348 265.89766847 -651.5 269.21484375 C-648.91363224 271.76087829 -646.18074095 274.10771557 -643.4296875 276.47265625 C-640.93177819 278.6879738 -638.61584386 281.0564817 -636.27734375 283.4375 C-634.41219701 285.26992487 -632.47681629 286.98103135 -630.49609375 288.6875 C-627.88961766 290.9330794 -625.40674854 293.23301512 -622.99609375 295.6875 C-620.60556208 298.12139732 -618.14563113 300.40105559 -615.55859375 302.625 C-612.02974612 305.66429651 -608.76604348 308.89766847 -605.5 312.21484375 C-602.91363224 314.76087829 -600.18074095 317.10771557 -597.4296875 319.47265625 C-594.93040237 321.68919397 -592.61327491 324.05912281 -590.2734375 326.44140625 C-588.43015801 328.25227643 -586.51786576 329.94071354 -584.55859375 331.625 C-581.02974612 334.66429651 -577.76604348 337.89766847 -574.5 341.21484375 C-571.91363224 343.76087829 -569.18074095 346.10771557 -566.4296875 348.47265625 C-563.93177819 350.6879738 -561.61584386 353.0564817 -559.27734375 355.4375 C-557.41219701 357.26992487 -555.47681629 358.98103135 -553.49609375 360.6875 C-550.2679341 363.4686837 -547.26541486 366.39504776 -544.28125 369.43359375 C-541.76748056 371.90335847 -539.09851407 374.17710569 -536.4296875 376.4765625 C-533.65764481 378.92940028 -531.08037674 381.53860994 -528.49609375 384.1875 C-523.43328279 382.62971201 -519.97516088 379.53572776 -515.99609375 376.1875 C-514.56231539 375.00125222 -513.1274054 373.81637096 -511.69140625 372.6328125 C-510.98145508 372.04661133 -510.27150391 371.46041016 -509.54003906 370.85644531 C-506.69443571 368.53292112 -503.7935938 366.28806478 -500.87109375 364.0625 C-496.40817715 360.65615552 -491.97006983 357.2227081 -487.55859375 353.75 C-486.97706543 353.29222168 -486.39553711 352.83444336 -485.79638672 352.36279297 C-484.61819235 351.43490379 -483.44013276 350.50684346 -482.26220703 349.57861328 C-479.34238327 347.27875763 -476.41907482 344.98334055 -473.49609375 342.6875 C-472.32941014 341.7708549 -471.16274348 340.85418823 -469.99609375 339.9375 C-406.99609375 290.4375 -406.99609375 290.4375 -405.24633789 289.06274414 C-404.07878965 288.14534991 -402.91130926 287.22786933 -401.74389648 286.31030273 C-398.84126585 284.02905755 -395.93750101 281.74928786 -393.03125 279.47265625 C-387.67914277 275.27749658 -382.3396705 271.0692142 -377.04101562 266.80664062 C-371.10937964 262.03513534 -365.12273243 257.35211867 -359.05859375 252.75 C-352.68045637 247.9081864 -346.43385954 242.92978069 -340.23901367 237.85620117 C-335.13333797 233.6821673 -329.94040449 229.64251559 -324.69921875 225.640625 C-317.06004615 219.80553744 -309.52920444 213.82882115 -302.03881836 207.80444336 C-296.10731681 203.0344202 -290.12191922 198.35150152 -284.05859375 193.75 C-277.68045637 188.9081864 -271.43385954 183.92978069 -265.23901367 178.85620117 C-260.13333797 174.6821673 -254.94040449 170.64251559 -249.69921875 166.640625 C-242.06004615 160.80553744 -234.52920444 154.82882115 -227.03881836 148.80444336 C-221.10731681 144.0344202 -215.12191922 139.35150152 -209.05859375 134.75 C-202.68045637 129.9081864 -196.43385954 124.92978069 -190.23901367 119.85620117 C-185.1347413 115.68331456 -179.9436141 111.64436201 -174.703125 107.64453125 C-169.51013553 103.67830767 -164.38988414 99.61869905 -159.2578125 95.57421875 C-157.51619587 94.20332318 -155.7722149 92.83550009 -154.02734375 91.46875 C-148.67611482 87.27542019 -143.33825121 83.06807244 -138.04101562 78.80664062 C-132.10937964 74.03513534 -126.12273243 69.35211867 -120.05859375 64.75 C-113.68045637 59.9081864 -107.43385954 54.92978069 -101.23901367 49.85620117 C-96.13333797 45.6821673 -90.94040449 41.64251559 -85.69921875 37.640625 C-78.0593209 31.80498347 -70.52672562 25.82875349 -63.03686523 19.80224609 C-56.91578906 14.88183946 -50.76270185 10.00285232 -44.55859375 5.1875 C-43.8730542 4.64754395 -43.18751465 4.10758789 -42.48120117 3.55126953 C-29.66696953 -6.32639974 -14.13480025 -10.26376732 0 0 Z " fill="#ff4404" transform="translate(1222.49609375,282.8125)"/>
<path d="M0 0 C30.31378303 26.63609986 50.57112352 62.92325304 53.77490234 103.55957031 C56.14863182 148.65354991 42.63053474 188.81112932 12.52490234 222.62207031 C8.49674488 226.91196226 4.34944334 230.86134736 -0.22509766 234.55957031 C-1.13388672 235.31753906 -2.04267578 236.07550781 -2.97900391 236.85644531 C-29.71508269 258.66508495 -64.08111315 270.03225914 -98.41259766 269.87207031 C-99.67491211 269.86715576 -100.93722656 269.86224121 -102.23779297 269.85717773 C-138.73221073 269.40320915 -174.38633629 255.45795368 -201.11962891 230.51269531 C-202.83767226 228.91896307 -204.57375101 227.44498106 -206.41259766 225.99707031 C-232.71041843 203.20562564 -248.63695252 164.66677 -251.22509766 130.55957031 C-253.45432217 88.80805289 -242.22145203 48.26023503 -214.22509766 16.55957031 C-159.06671174 -44.42020472 -63.86632205 -53.86407785 0 0 Z " fill="#ff4404" transform="translate(513.22509765625,1696.4404296875)"/>
<path d="M0 0 C4.15371006 3.60977184 8.26822048 7.24665291 12.296875 10.99609375 C12.97492188 11.62 13.65296875 12.24390625 14.3515625 12.88671875 C41.24278972 38.58998011 56.28739452 76.97180912 57.5 113.79296875 C58.03050423 147.20802023 49.81636777 179.56870391 30.296875 206.99609375 C29.57371094 208.03507812 28.85054687 209.0740625 28.10546875 210.14453125 C4.3918913 242.64537344 -31.52230175 264.37300975 -71.203125 270.87109375 C-90.11350055 273.59696492 -110.06171224 273.28065973 -128.703125 268.99609375 C-129.92443115 268.72200684 -129.92443115 268.72200684 -131.17041016 268.44238281 C-150.27367501 263.99092374 -169.02561953 255.89618452 -184.703125 243.99609375 C-185.53199219 243.37476563 -186.36085938 242.7534375 -187.21484375 242.11328125 C-216.06573362 219.73912176 -236.29400875 189.77562278 -244.703125 153.99609375 C-244.96561035 152.90143799 -244.96561035 152.90143799 -245.23339844 151.78466797 C-249.96681821 130.98105372 -249.75708131 106.69019585 -244.703125 85.99609375 C-244.53151855 85.26181152 -244.35991211 84.5275293 -244.18310547 83.77099609 C-241.53072187 72.63288124 -237.71538049 62.28066169 -232.703125 51.99609375 C-232.15785156 50.87589844 -231.61257813 49.75570313 -231.05078125 48.6015625 C-225.10424877 37.03030988 -217.6110159 26.65449421 -208.7109375 17.1796875 C-206.63909801 14.98001194 -206.63909801 14.98001194 -204.66015625 12.41796875 C-183.30831011 -14.00547358 -144.73867053 -28.75437721 -112.0859375 -32.53515625 C-72.11956832 -36.4042877 -31.10764433 -25.94043495 0 0 Z " fill="#ff4404" transform="translate(1300.703125,1694.00390625)"/>
<path d="M0 0 C0.6791748 0.20898926 1.35834961 0.41797852 2.05810547 0.63330078 C28.53005586 8.99781055 51.32727995 27.99445796 64.44921875 52.44921875 C78.12227492 79.23747485 81.46022859 110.24755302 72.33447266 139.10449219 C70.81772166 143.52915433 68.98841575 147.76380993 67 152 C66.48695313 153.09570312 65.97390625 154.19140625 65.4453125 155.3203125 C52.761846 180.50518618 30.0623453 199.41255501 3.625 208.8125 C-25.57676618 217.76972569 -56.3528437 215.93286147 -83.625 201.8125 C-110.78340401 187.18356478 -129.02858643 163.31943165 -137.9921875 134.109375 C-145.51939614 105.37044868 -141.41528217 74.87695521 -126.8671875 49.12109375 C-121.91689339 40.82591573 -115.72293658 33.88791662 -109 27 C-108.40703125 26.34515625 -107.8140625 25.6903125 -107.203125 25.015625 C-81.40519521 -2.82570517 -35.08782738 -11.13831543 0 0 Z " fill="#ff4404" transform="translate(1724,188)"/>
<path d="M0 0 C7.75448633 6.79105015 15.01234456 13.60586387 15.81640625 24.48046875 C16.00453367 34.21358722 14.84845154 41.25613661 9.453125 49.5078125 C2.43157739 56.22407543 -5.30338132 59.98898721 -15.0078125 60.35546875 C-23.21595317 60.0614809 -31.12052395 57.13355618 -37.27734375 51.5859375 C-38.34785441 50.43348651 -39.41415395 49.27711182 -40.4765625 48.1171875 C-53.66897493 35.5075724 -71.63096284 31.7102239 -89.20703125 31.98828125 C-110.74538872 32.78252041 -126.08936113 44.50494779 -140.39453125 59.33203125 C-148.55075769 67.7568552 -155.14558069 72.32024419 -167.109375 72.5703125 C-177.50480154 72.45206049 -183.06084235 68.83901881 -190.8984375 62.33984375 C-205.67844588 50.14519287 -221.8595908 43.52073683 -241.109375 44.3203125 C-258.02516162 46.02084131 -271.61652471 52.21804587 -283.84765625 63.94921875 C-291.85499058 71.1303031 -299.29945403 72.63337251 -309.80859375 72.53515625 C-318.06719696 71.90125265 -324.88200286 68.39124237 -330.421875 62.2578125 C-336.47347392 54.50017772 -338.534647 46.01263201 -337.421875 36.2578125 C-334.22450632 21.2580762 -321.16714749 10.96435817 -308.8828125 2.875 C-297.54799849 -4.30040126 -285.51273723 -9.70040026 -272.671875 -13.5546875 C-272.0236377 -13.7496582 -271.37540039 -13.94462891 -270.70751953 -14.14550781 C-259.54223507 -17.30375989 -248.49192708 -18.15110823 -236.921875 -18.1171875 C-236.2211084 -18.11664368 -235.5203418 -18.11609985 -234.79833984 -18.11553955 C-210.6984084 -18.02986004 -190.85173996 -11.14921962 -169.421875 -0.7421875 C-168.53628906 -1.43183594 -167.65070313 -2.12148437 -166.73828125 -2.83203125 C-117.02321592 -40.85663912 -48.2731245 -40.68734779 0 0 Z " fill="#ff4404" transform="translate(462.421875,215.7421875)"/>
<path d="M0 0 C6.74654114 4.28590199 12.10752454 9.93755171 14.69140625 17.58203125 C16.69897031 27.34065388 16.21287646 36.70422209 11.28125 45.44921875 C8.45605222 48.96469538 5.30543604 52.04162918 2.03125 55.13671875 C0.79955078 56.34038086 0.79955078 56.34038086 -0.45703125 57.56835938 C-4.84087021 61.82367057 -9.32684609 65.93274398 -13.96972656 69.90356445 C-15.79664411 71.51805565 -17.51163284 73.20915453 -19.21875 74.94921875 C-22.25707417 78.04278518 -25.4664032 80.87027382 -28.75 83.69921875 C-30.64898071 85.38720161 -32.43880988 87.13691609 -34.21875 88.94921875 C-36.60928167 91.38311607 -39.06921262 93.66277434 -41.65625 95.88671875 C-44.46451347 98.30539654 -47.11845593 100.80821558 -49.71875 103.44921875 C-52.9403355 106.72124003 -56.30467145 109.7423793 -59.78515625 112.734375 C-62.28306556 114.94969255 -64.59899989 117.31820045 -66.9375 119.69921875 C-69.43771185 122.15556724 -72.09555516 124.41231243 -74.75 126.69921875 C-76.64898071 128.38720161 -78.43880988 130.13691609 -80.21875 131.94921875 C-83.25707417 135.04278518 -86.4664032 137.87027382 -89.75 140.69921875 C-91.64898071 142.38720161 -93.43880988 144.13691609 -95.21875 145.94921875 C-98.25707417 149.04278518 -101.4664032 151.87027382 -104.75 154.69921875 C-106.64898071 156.38720161 -108.43880988 158.13691609 -110.21875 159.94921875 C-112.60928167 162.38311607 -115.06921262 164.66277434 -117.65625 166.88671875 C-120.46451347 169.30539654 -123.11845593 171.80821558 -125.71875 174.44921875 C-128.9403355 177.72124003 -132.30467145 180.7423793 -135.78515625 183.734375 C-138.28306556 185.94969255 -140.59899989 188.31820045 -142.9375 190.69921875 C-145.43771185 193.15556724 -148.09555516 195.41231243 -150.75 197.69921875 C-152.64898071 199.38720161 -154.43880988 201.13691609 -156.21875 202.94921875 C-165.59441643 212.43094475 -175.37046787 221.62286609 -189.28125 221.94921875 C-198.02107335 221.96626131 -204.89861778 219.54730687 -211.6484375 213.80859375 C-217.4733598 207.60693519 -220.31376429 199.61278661 -220.96875 191.26171875 C-220.01786568 176.76073288 -211.96422077 168.27944724 -201.5390625 159.08007812 C-198.09971602 155.99868938 -194.76017082 152.81043116 -191.40625 149.63671875 C-189.94431237 148.25749237 -188.4820725 146.87858628 -187.01953125 145.5 C-186.29975098 144.82146973 -185.5799707 144.14293945 -184.83837891 143.44384766 C-179.76102386 138.66591737 -174.65747093 133.9159592 -169.55712891 129.16259766 C-166.46421931 126.27998948 -163.37251458 123.39609085 -160.28125 120.51171875 C-159.66491699 119.93663574 -159.04858398 119.36155273 -158.41357422 118.76904297 C-153.16791418 113.87245726 -147.93298541 108.96448323 -142.69946289 104.05493164 C-137.59521538 99.26780277 -132.48088682 94.49159057 -127.36328125 89.71875 C-122.80836564 85.46940525 -118.26188503 81.21115394 -113.71875 76.94921875 C-107.94199354 71.53001781 -102.15582977 66.12106367 -96.36328125 60.71875 C-91.80836559 56.4694052 -87.26190203 52.21113588 -82.71875 47.94921875 C-76.30484485 41.93273819 -69.88078405 35.92728319 -63.44921875 29.9296875 C-60.25982236 26.95532547 -57.07510964 23.9759901 -53.89111328 20.99584961 C-52.00707577 19.23503782 -50.11924905 17.47837814 -48.23046875 15.72265625 C-46.01044887 13.65900982 -43.80521448 11.58170859 -41.61328125 9.48828125 C-30.11388224 -1.32908444 -15.35094797 -7.29170028 0 0 Z " fill="#ff4404" transform="translate(428.71875,652.55078125)"/>
<path d="M0 0 C6.88843132 5.32287875 11.79325667 11.48271696 13.75 20.125 C14.60799101 29.08190618 13.62655819 36.69992535 8.3125 44.13671875 C6.54319844 46.23351122 4.68302058 48.17771359 2.75 50.125 C1.88632813 51.01445313 1.02265625 51.90390625 0.1328125 52.8203125 C-4.52062667 57.57310756 -9.29371643 62.12971932 -14.35546875 66.44921875 C-17.11660325 68.89154184 -19.66468811 71.53054261 -22.25 74.15625 C-24.81305228 76.67925459 -27.52345824 79.00062817 -30.25 81.34375 C-32.33337078 83.1992521 -34.29281207 85.13723101 -36.25 87.125 C-39.45029522 90.37529983 -42.79224576 93.37224245 -46.25 96.34375 C-49.03885533 98.82757428 -51.62686983 101.49211437 -54.24609375 104.15234375 C-56.83246151 106.69837829 -59.5653528 109.04521557 -62.31640625 111.41015625 C-64.20494597 113.08504299 -65.98155648 114.82447587 -67.75 116.625 C-70.14053167 119.05889732 -72.60046262 121.33855559 -75.1875 123.5625 C-77.99576347 125.98117779 -80.64970593 128.48399683 -83.25 131.125 C-86.45029522 134.37529983 -89.79224576 137.37224245 -93.25 140.34375 C-95.33337078 142.1992521 -97.29281207 144.13723101 -99.25 146.125 C-108.57771353 155.54362692 -118.5072654 165.32767568 -132.5 165.5 C-141.71478184 165.32178465 -148.74873619 162.50194105 -155.4921875 156.1953125 C-162.602463 147.82098802 -163.88185679 138.74267192 -163.25 128.125 C-162.074571 119.84532976 -156.96425957 114.87363105 -151.25 109.125 C-149.88681641 107.72314453 -149.88681641 107.72314453 -148.49609375 106.29296875 C-143.88589179 101.58476285 -139.15692034 97.07815605 -134.14453125 92.80078125 C-131.38339675 90.35845816 -128.83531189 87.71945739 -126.25 85.09375 C-123.68694772 82.57074541 -120.97654176 80.24937183 -118.25 77.90625 C-116.16662922 76.0507479 -114.20718793 74.11276899 -112.25 72.125 C-109.04970478 68.87470017 -105.70775424 65.87775755 -102.25 62.90625 C-100.16662922 61.0507479 -98.20718793 59.11276899 -96.25 57.125 C-93.04970478 53.87470017 -89.70775424 50.87775755 -86.25 47.90625 C-84.16662922 46.0507479 -82.20718793 44.11276899 -80.25 42.125 C-77.04970478 38.87470017 -73.70775424 35.87775755 -70.25 32.90625 C-68.16662922 31.0507479 -66.20718793 29.11276899 -64.25 27.125 C-61.04970478 23.87470017 -57.70775424 20.87775755 -54.25 17.90625 C-52.16662922 16.0507479 -50.20718793 14.11276899 -48.25 12.125 C-34.37110195 -1.83490329 -18.88212162 -10.8935317 0 0 Z " fill="#ff4404" transform="translate(182.25,708.875)"/>
<path d="M0 0 C7.0800565 4.70755079 11.12176884 10.88370879 13.609375 18.984375 C15.25723436 27.48732932 13.97884115 35.36396779 10 43 C8.12501526 45.36611938 8.12501526 45.36611938 5.95141602 47.71337891 C5.14890411 48.58126038 4.34639221 49.44914185 3.51956177 50.34332275 C-0.53457294 54.61808497 -4.63738908 58.83950289 -8.78515625 63.0234375 C-9.68568222 63.93203522 -10.58620819 64.84063293 -11.51402283 65.77676392 C-13.40251689 67.67898017 -15.29230355 69.57982044 -17.18383789 71.47900391 C-19.59158344 73.89789311 -21.98739215 76.32826832 -24.38089848 78.76123619 C-26.6944322 81.10730952 -29.02205487 83.43933556 -31.34765625 85.7734375 C-32.19683121 86.64012054 -33.04600616 87.50680359 -33.9209137 88.39974976 C-41.28813094 95.74039795 -49.09874729 100.80301586 -59.8203125 101.0703125 C-69.4382463 100.65214147 -76.6289493 97.82019611 -83.375 90.875 C-88.96292844 84.0541076 -91.76008429 76.30853971 -91.3125 67.46875 C-89.54882842 53.53574449 -80.56850655 45.25626253 -71.0078125 35.671875 C-70.05274877 34.71036267 -69.09782609 33.74871021 -68.14303589 32.78692627 C-66.15469567 30.78670771 -64.16236523 28.79056541 -62.16748047 26.796875 C-59.63023299 24.25983125 -57.10706605 21.70926353 -54.58716011 19.15501022 C-52.62418801 17.16966095 -50.65204988 15.19361002 -48.67733383 13.21994781 C-47.29495215 11.83410756 -45.92164726 10.43923178 -44.5486145 9.04412842 C-32.28264986 -3.13383228 -16.32836067 -9.56983921 0 0 Z " fill="#ff4404" transform="translate(1881,94)"/>
<path d="M0 0 C8.45735257 4.32918622 15.38859097 11.94249962 22.04547119 18.58145142 C22.92712952 19.45645294 23.80878784 20.33145447 24.71716309 21.23297119 C26.56504459 23.07079895 28.41029097 24.91127977 30.25299072 26.75430298 C33.05717695 29.55410081 35.87700143 32.33748135 38.69781494 35.12051392 C40.50217929 36.91901149 42.30559726 38.71845914 44.10797119 40.51895142 C45.35970123 41.74912491 45.35970123 41.74912491 46.63671875 43.00415039 C54.62235115 51.05213069 61.11270353 59.80628973 61.62359619 71.49551392 C61.33704568 81.40679041 57.63713511 89.13186733 50.49468994 95.90567017 C44.21410297 101.06970834 36.56154841 103.83637414 28.38140869 103.47207642 C18.81895399 102.13694123 12.03006228 98.1308514 5.19537354 91.3578186 C4.48680962 90.65933052 4.48680962 90.65933052 3.76393127 89.94673157 C2.21969354 88.42133385 0.68295751 86.8886546 -0.85296631 85.35488892 C-1.9332572 84.28103464 -3.01369384 83.20732698 -4.0942688 82.13375854 C-6.3520329 79.88793148 -8.60566391 77.63804784 -10.85687256 75.38565063 C-13.72926839 72.51305158 -16.61517949 69.65446226 -19.50483131 66.7992363 C-21.73889491 64.58750518 -23.96371266 62.36664616 -26.18610764 60.14319611 C-27.24573411 59.08591527 -28.30857186 58.03184193 -29.37477493 56.98119354 C-37.64701297 48.81843996 -43.69613934 41.68649371 -44.00140381 29.62051392 C-43.88904354 20.39573627 -41.1522729 12.64467138 -34.75921631 5.90567017 C-25.26487277 -1.99434021 -11.60833821 -4.73859934 0 0 Z " fill="#ff4404" transform="translate(1532.6889038085938,91.81698608398438)"/>
<path d="M0 0 C6.19203937 4.97064318 11.89946963 10.26661531 17.49824524 15.89271545 C18.38227524 16.774832 19.26630524 17.65694855 20.17712402 18.5657959 C22.02905259 20.41637327 23.87849739 22.26943933 25.72554016 24.12489319 C27.60812205 26.01465739 29.49305556 27.90150078 31.38374329 29.78309631 C34.13565425 32.52261665 36.88051016 35.26901152 39.62324524 38.01771545 C40.88271721 39.27111473 40.88271721 39.27111473 42.16763306 40.54983521 C50.67205798 49.12228205 56.65799856 56.97127708 57.10371399 69.4513092 C56.7767786 78.91757492 52.95287253 86.47645649 46.16621399 93.0138092 C39.64720874 98.46848707 31.77545829 101.18634742 23.26777649 100.76771545 C5.66948907 98.14150949 -5.8886928 82.05296294 -17.88114929 70.12904358 C-19.97486272 68.04870799 -22.07562415 65.9759047 -24.1829071 63.90931702 C-26.75158516 61.39019851 -29.3075405 58.85879816 -31.85509491 56.31832504 C-33.28269394 54.90059363 -34.72238121 53.49506747 -36.16233826 52.08988953 C-43.69144001 44.53625878 -48.28371184 37.09806601 -48.58378601 26.2638092 C-48.49364519 17.81310717 -45.18723032 9.51443255 -39.27128601 3.3888092 C-28.28114826 -5.57301687 -12.19254304 -8.64907063 0 0 Z " fill="#ff4404" transform="translate(1838.2712860107422,395.61119079589844)"/>
<path d="M0 0 C7.81114267 5.42249799 13.20960548 12.55973799 15 22 C15.94394248 30.45191579 14.49425174 38.58260763 9.12254333 45.37345886 C8.04566002 46.53474052 8.04566002 46.53474052 6.94702148 47.71948242 C5.74322342 49.02047379 5.74322342 49.02047379 4.5151062 50.3477478 C-2.2443264 57.47576488 -9.14972783 64.45653947 -16.07397461 71.42407227 C-17.98829603 73.35178683 -19.89505148 75.28654317 -21.7956543 77.2277832 C-24.56684247 80.05814062 -27.35874598 82.8675321 -30.15234375 85.67578125 C-30.99119614 86.53730301 -31.83004852 87.39882477 -32.69432068 88.28645325 C-40.27022106 95.83573241 -48.20205906 100.9179451 -59.125 101.3125 C-67.86883677 101.16701187 -75.12498667 97.72539553 -81.3515625 91.71484375 C-81.89554688 91.14894531 -82.43953125 90.58304687 -83 90 C-83.763125 89.21625 -84.52625 88.4325 -85.3125 87.625 C-90.44163621 79.64634367 -91.20270353 70.79364969 -89.56640625 61.55078125 C-86.62393568 51.07851023 -77.6448139 43.3363075 -70.19140625 35.890625 C-69.26585434 34.96078796 -68.34030243 34.03095093 -67.38670349 33.07293701 C-65.44110105 31.11993525 -63.49175238 29.17077039 -61.53979492 27.22412109 C-59.05578761 24.7459242 -56.58337895 22.2565 -54.1138773 19.7638588 C-51.73002231 17.36163074 -49.33510921 14.97054003 -46.94140625 12.578125 C-46.0640834 11.69159241 -45.18676056 10.80505981 -44.28285217 9.8916626 C-31.92890731 -2.37042281 -16.59269426 -9.48553685 0 0 Z " fill="#ff4404" transform="translate(1579,395)"/>
<path d="M0 0 C7.66711992 4.42734506 12.59846472 10.14061834 15.4375 18.5 C16.41702454 22.48610144 16.57535039 26.23513873 16.59863281 30.3347168 C16.60608017 31.33584251 16.60608017 31.33584251 16.61367798 32.35719299 C16.62822288 34.55454562 16.63508986 36.75182598 16.640625 38.94921875 C16.64486607 40.0820375 16.64486607 40.0820375 16.64919281 41.23774147 C16.66415697 45.23686698 16.67340304 49.2359567 16.67773438 53.23510742 C16.68320495 57.34260001 16.70721079 61.44975876 16.73570633 65.55714703 C16.75444033 68.73583393 16.75954407 71.91444228 16.76107025 75.0931797 C16.76407472 76.60607535 16.77202759 78.11897035 16.78525543 79.63181114 C16.88106732 91.43509755 16.19740185 101.21075011 8.3984375 110.5234375 C2.09307735 116.87903956 -5.38848803 119.77404964 -14.3125 119.875 C-23.28602488 119.72370769 -30.42501856 117.38477036 -37.03125 111.19921875 C-43.3416363 104.19662171 -45.79462424 96.69601215 -45.85302734 87.27050781 C-45.85974457 86.58489777 -45.86646179 85.89928772 -45.87338257 85.19290161 C-45.89224126 82.94623383 -45.8962808 80.69986681 -45.8984375 78.453125 C-45.90487481 76.8752226 -45.91160385 75.29732137 -45.91860962 73.71942139 C-45.93055279 70.41773719 -45.9342936 67.11615738 -45.93310547 63.81445312 C-45.93290267 59.61057656 -45.96017745 55.40737894 -45.99464989 51.20366287 C-46.01703268 47.94513963 -46.02093952 44.68677671 -46.01988602 41.42818451 C-46.02222594 39.87982601 -46.03095742 38.33146198 -46.04655075 36.78318024 C-46.15306598 25.11319124 -45.29949304 14.09541041 -36.71484375 5.29296875 C-26.04427139 -3.59594725 -12.71625804 -5.79313883 0 0 Z " fill="#ff4404" transform="translate(1706.5625,21.5)"/>
<path d="M0 0 C7.41440747 6.91832596 11.68900917 13.91803193 12.14044189 24.19818115 C12.1506839 26.00612152 12.1506839 26.00612152 12.16113281 27.85058594 C12.16858017 28.85412109 12.16858017 28.85412109 12.17617798 29.87792969 C12.19072107 32.0800888 12.19758899 34.28217585 12.203125 36.484375 C12.20736607 37.61906597 12.20736607 37.61906597 12.21169281 38.77667999 C12.22665502 42.78113654 12.23590275 46.78555734 12.24023438 50.79003906 C12.2457096 54.9065976 12.26972587 59.02282382 12.29820633 63.13927841 C12.31692093 66.322214 12.32204301 69.50507101 12.32357025 72.68805695 C12.32657826 74.20457014 12.33454347 75.72108257 12.34775543 77.2375412 C12.44590992 89.3711791 11.23698235 99.49441516 3 109 C-4.59664725 115.47583044 -12.13384865 117.46360925 -22.01171875 117.2421875 C-30.55961724 116.54941664 -36.88490883 112.94885568 -43 107 C-48.36675297 100.3535833 -50.23776688 93.28536427 -50.29052734 84.77050781 C-50.29724457 84.08489777 -50.30396179 83.39928772 -50.31088257 82.69290161 C-50.32974126 80.44623383 -50.3337808 78.19986681 -50.3359375 75.953125 C-50.34237481 74.3752226 -50.34910385 72.79732137 -50.35610962 71.21942139 C-50.36805279 67.91773719 -50.3717936 64.61615738 -50.37060547 61.31445312 C-50.37040267 57.11057656 -50.39767745 52.90737894 -50.43214989 48.70366287 C-50.45453268 45.44513963 -50.45843952 42.18677671 -50.45738602 38.92818451 C-50.45972594 37.37982601 -50.46845742 35.83146198 -50.48405075 34.28318024 C-50.59889512 21.70063611 -49.22641799 11.27060715 -40.1328125 1.875 C-29.31933178 -7.63135667 -11.71217803 -8.66847272 0 0 Z " fill="#ff4404" transform="translate(1711,450)"/>
<path d="M0 0 C0.69492554 -0.0065712 1.38985107 -0.0131424 2.10583496 -0.01991272 C4.40120569 -0.03958791 6.69651098 -0.05129881 8.99194336 -0.0612793 C9.77992247 -0.06535482 10.56790157 -0.06943035 11.37975883 -0.07362938 C15.55509043 -0.09447109 19.73038941 -0.10877787 23.90576172 -0.11816406 C28.19375614 -0.12919109 32.48122629 -0.16355296 36.76903629 -0.20333576 C40.08673486 -0.22963671 43.40431141 -0.23786803 46.72210503 -0.24144554 C48.30117753 -0.24628116 49.8802457 -0.25780759 51.45921516 -0.27648354 C63.41446238 -0.4090376 74.19585551 0.47309969 83.29663086 9.10668945 C90.4977492 17.76109472 91.88857439 27.24541667 91.01928711 38.17700195 C90.10010695 41.48224046 88.76641069 44.2367208 87.01928711 47.17700195 C86.46241211 48.22887695 85.90553711 49.28075195 85.33178711 50.36450195 C79.75589841 57.1459882 72.48055744 60.41426855 64.01928711 62.17700195 C58.77763079 62.6021775 53.55456261 62.60052255 48.30053711 62.57543945 C46.79178731 62.57746562 45.28303848 62.58038154 43.77429199 62.58413696 C40.62750838 62.58853486 37.48098198 62.58221185 34.33422852 62.56811523 C30.32658659 62.55102464 26.31954767 62.56087956 22.3119278 62.57883263 C19.20098431 62.58973956 16.09018078 62.58619271 12.97923279 62.57844925 C11.50263902 62.57646627 10.02603201 62.57883862 8.54945374 62.58588791 C-2.98697543 62.62889426 -12.80127306 61.8767489 -21.93383789 54.2824707 C-29.07384302 46.93807611 -31.28539563 39.32061859 -31.29541016 29.3684082 C-31.12626816 20.48094735 -27.99956422 14.46877354 -21.98071289 7.9699707 C-15.3336736 2.01100384 -8.74980592 0.06864562 0 0 Z " fill="#ff4404" transform="translate(1874.980712890625,261.822998046875)"/>
<path d="M0 0 C0.69653183 -0.0065712 1.39306366 -0.0131424 2.11070251 -0.01991272 C4.41087975 -0.03958547 6.71099174 -0.05129728 9.01123047 -0.0612793 C10.19507135 -0.06739259 10.19507135 -0.06739259 11.40282822 -0.07362938 C15.58349086 -0.09446846 19.76412093 -0.10877726 23.94482422 -0.11816406 C28.24188421 -0.12920008 32.53842233 -0.16357324 36.83529854 -0.20333576 C40.15724584 -0.22961057 43.47907108 -0.23786566 46.80111313 -0.24144554 C48.38380314 -0.24628662 49.96648861 -0.2578291 51.54907608 -0.27648354 C63.24567759 -0.4057421 73.32487232 0.5301045 82.17529297 9.02075195 C88.7752467 16.80531277 90.91187292 24.50157144 90.45654297 34.62231445 C89.4373144 42.61798686 86.37518836 50.00388144 80.00341797 55.17700195 C72.10938639 59.91127869 65.54841825 62.28431751 56.35229492 62.33813477 C55.70438492 62.34309967 55.05647491 62.34806458 54.38893127 62.35317993 C52.25650954 62.36772075 50.12416228 62.37459117 47.99169922 62.38012695 C46.89197816 62.38436802 46.89197816 62.38436802 45.77004051 62.38869476 C41.88762429 62.40365736 38.00524492 62.41290437 34.12280273 62.41723633 C30.13637399 62.42270621 26.15028933 62.44671096 22.16396809 62.47520828 C19.0779272 62.49394768 15.9919672 62.4990463 12.90587425 62.5005722 C11.43763543 62.50357554 9.96939724 62.51152448 8.50121498 62.52475739 C-3.68892587 62.62675714 -14.52808467 61.54114303 -23.99658203 53.17700195 C-31.42389074 44.30240183 -32.98987728 35.56846391 -31.99658203 24.17700195 C-30.34501344 16.95757041 -26.63618321 10.97439426 -20.99658203 6.17700195 C-13.99307002 1.83892518 -8.20670704 0.0642304 0 0 Z " fill="#ff4404" transform="translate(1449.99658203125,261.822998046875)"/>
</svg>